<svg xmlns="http://www.w3.org/2000/svg" viewBox="0 0 100 100" width="100" height="100">
  <circle cx="50" cy="50" r="48" fill="#FFFDE7"/>
  <circle cx="50" cy="45" r="25" fill="#FFE0B2"/>
  <path d="M28 38 Q32 12 50 12 Q68 12 72 38" fill="#5D4037"/>
  <path d="M28 38 Q25 50 28 60" fill="#5D4037"/>
  <path d="M72 38 Q75 50 72 60" fill="#5D4037"/>
  <path d="M35 14 Q50 8 65 14" fill="none" stroke="#FF6F00" stroke-width="3" stroke-linecap="round"/>
  <circle cx="40" cy="43" r="3" fill="#333"/>
  <circle cx="60" cy="43" r="3" fill="#333"/>
  <path d="M44 54 Q50 57 56 54" stroke="#333" stroke-width="2" fill="none" stroke-linecap="round"/>
  <ellipse cx="34" cy="47" rx="3" ry="2" fill="#FFAB91" opacity="0.5"/>
  <ellipse cx="66" cy="47" rx="3" ry="2" fill="#FFAB91" opacity="0.5"/>
  <rect x="33" y="68" width="34" height="22" rx="5" fill="#F57F17"/>
</svg>
